<svg width="24" height="24" viewBox="0 0 24 24" fill="none" xmlns="http://www.w3.org/2000/svg">
<path d="M22.0294 8.62507C22.6645 8.62507 23 8.27738 23 7.64196V4.70463C23 2.23488 21.7418 1 19.2375 1H16.3017C15.6786 1 15.3312 1.34768 15.3312 1.95913C15.3312 2.58256 15.6786 2.93025 16.3017 2.93025H19.2015C20.3878 2.93025 21.0708 3.56567 21.0708 4.81253V7.64196C21.0708 8.27738 21.4183 8.62507 22.0294 8.62507ZM1.95861 8.62507C2.59368 8.62507 2.92919 8.27738 2.92919 7.64196V4.81253C2.92919 3.56567 3.58824 2.93025 4.78649 2.93025H7.68627C8.32135 2.93025 8.66885 2.58256 8.66885 1.95913C8.66885 1.34768 8.32135 1 7.68627 1H4.76253C2.25817 1 1 2.23488 1 4.70463V7.64196C1 8.27738 1.34749 8.62507 1.95861 8.62507ZM11.0654 14.176H11.1732C12.3715 14.176 13.0305 13.5166 13.0305 12.3057V8.52916C13.0305 8.06158 12.719 7.74986 12.2636 7.74986C11.7843 7.74986 11.4728 8.06158 11.4728 8.52916V12.4136C11.4728 12.5335 11.4009 12.5935 11.293 12.5935H10.8856C10.4423 12.5935 10.1068 12.9172 10.1068 13.3488C10.1068 13.8763 10.4662 14.176 11.0654 14.176ZM7.69826 11.3466C8.26144 11.3466 8.66885 10.951 8.66885 10.3755V8.73297C8.66885 8.16948 8.26144 7.77384 7.69826 7.77384C7.14706 7.77384 6.73965 8.16948 6.73965 8.73297V10.3755C6.73965 10.951 7.14706 11.3466 7.69826 11.3466ZM16.3137 11.3466C16.8649 11.3466 17.2603 10.951 17.2603 10.3755V8.73297C17.2603 8.16948 16.8649 7.77384 16.3137 7.77384C15.7386 7.77384 15.3431 8.16948 15.3431 8.73297V10.3755C15.3431 10.951 15.7386 11.3466 16.3137 11.3466ZM11.9521 17.8447C13.402 17.8447 14.8638 17.2213 15.9063 16.1782C16.0501 16.0343 16.122 15.8425 16.122 15.5907C16.122 15.1471 15.7865 14.8234 15.3431 14.8234C15.1155 14.8234 14.9477 14.9074 14.72 15.1471C14.073 15.8305 13.0185 16.2981 11.9521 16.2981C10.9455 16.2981 9.89107 15.8545 9.19608 15.1471C9.00436 14.9673 8.84858 14.8234 8.561 14.8234C8.11765 14.8234 7.78214 15.1471 7.78214 15.5907C7.78214 15.8065 7.85403 15.9864 8.0098 16.1662C8.98039 17.2692 10.5022 17.8447 11.9521 17.8447ZM4.76253 23H7.68627C8.32135 23 8.66885 22.6523 8.66885 22.0409C8.66885 21.4174 8.32135 21.0698 7.68627 21.0698H4.78649C3.58824 21.0698 2.92919 20.4343 2.92919 19.1875V16.358C2.92919 15.7226 2.5817 15.3749 1.95861 15.3749C1.33551 15.3749 1 15.7226 1 16.358V19.2834C1 21.7651 2.25817 23 4.76253 23ZM16.3017 23H19.2375C21.7418 23 23 21.7531 23 19.2834V16.358C23 15.7226 22.6525 15.3749 22.0294 15.3749C21.4063 15.3749 21.0708 15.7226 21.0708 16.358V19.1875C21.0708 20.4343 20.3878 21.0698 19.2015 21.0698H16.3017C15.6786 21.0698 15.3312 21.4174 15.3312 22.0409C15.3312 22.6523 15.6786 23 16.3017 23Z" fill="black"/>
</svg>
