<svg width="24" height="24" viewBox="0 0 24 24" fill="none" xmlns="http://www.w3.org/2000/svg">
<path fill-rule="evenodd" clip-rule="evenodd" d="M12 21C12.1682 21 12.3354 20.9954 12.5013 20.9863C12.5036 20.8552 12.5318 20.7224 12.5885 20.595L12.5885 20.5949L12.5907 20.5899L12.604 20.5586C12.6167 20.5284 12.6367 20.4795 12.6628 20.4124C12.715 20.2781 12.7916 20.0708 12.8826 19.7933C13.0645 19.2383 13.3038 18.4027 13.5204 17.309C13.6279 16.7662 14.1537 16.4116 14.6947 16.517C15.2357 16.6225 15.5871 17.148 15.4796 17.6909C15.2461 18.8699 14.9854 19.7843 14.78 20.4111C14.7606 20.4702 14.7417 20.5267 14.7234 20.5806C15.3621 20.3781 15.9699 20.1062 16.538 19.7739C16.5085 19.6703 16.4953 19.5601 16.5014 19.4465L17.0155 19.4741L17.0155 19.474C16.5014 19.4465 16.5014 19.4463 16.5015 19.4461L16.5015 19.4457L16.5015 19.4447L16.5017 19.4422L16.5021 19.4352L16.5035 19.4129C16.5047 19.3945 16.5065 19.3687 16.509 19.3358C16.5141 19.2699 16.5222 19.175 16.5347 19.0514C16.5597 18.8041 16.6023 18.4418 16.6734 17.9659C16.8155 17.0141 17.0717 15.6082 17.5293 13.7597C18.3221 10.5574 16.8201 8.09365 15.5734 7.08648C15.5447 7.06327 15.5172 7.03848 15.4912 7.01224C14.87 6.38485 13.6255 6.02843 12.2439 6.0016C11.5839 5.98879 10.9625 6.05373 10.474 6.16502C10.2299 6.22066 10.0355 6.28412 9.8938 6.34591C9.77259 6.39877 9.72112 6.43688 9.71087 6.44448L9.70889 6.44586L9.71058 6.44408C9.32198 6.83652 8.68883 6.83964 8.29638 6.45104C7.90394 6.06245 7.90082 5.42929 8.28942 5.03685C8.72635 4.5956 9.41883 4.35419 10.0297 4.215C10.6947 4.0635 11.4799 3.98639 12.2827 4.00198C13.8093 4.03162 15.69 4.40556 16.872 5.56481C18.6142 6.99898 20.4704 10.2022 19.4707 14.2403C19.0661 15.8748 18.8275 17.1383 18.6881 18.0225C20.1253 16.4276 21 14.3159 21 12C21 7.02944 16.9706 3 12 3C7.02944 3 3 7.02944 3 12C3 13.4718 3.35329 14.8611 3.97969 16.0877C4.21385 15.3641 4.40801 14.2809 4.20989 12.8804C3.9614 11.1238 4.20307 9.80251 4.61708 8.82696C5.02963 7.85488 5.58733 7.29168 5.83915 7.03739L5.83981 7.03672C6.22841 6.64429 6.86157 6.64119 7.254 7.02979C7.64644 7.4184 7.64954 8.05156 7.26093 8.44399C7.06232 8.64456 6.72041 8.99032 6.45815 9.6083C6.19699 10.2237 5.98855 11.1751 6.19017 12.6003C6.43918 14.3605 6.19214 15.766 5.86832 16.747C5.70696 17.2358 5.52731 17.6172 5.38255 17.8838C5.35629 17.9321 5.33115 17.9767 5.30746 18.0176C5.51022 18.2429 5.72421 18.458 5.94853 18.6619C6.38854 18.0699 6.68428 17.656 6.90526 17.1061C7.15014 16.4967 7.32098 15.6596 7.32803 14.1985C6.86536 11.7472 7.37863 9.97905 8.34468 8.80836C9.26404 7.69425 10.5233 7.21613 11.4188 7.19549C12.6042 7.07217 13.6187 7.30457 14.4313 7.84521C15.2454 8.38689 15.766 9.17726 16.0737 10.0058C16.6747 11.6243 16.5412 13.5849 16.0097 14.9268C15.8063 15.4402 15.2252 15.6916 14.7117 15.4882C14.1982 15.2848 13.9469 14.7037 14.1503 14.1902C14.519 13.2594 14.6106 11.8109 14.1988 10.7021C14.0001 10.167 13.7049 9.76414 13.3234 9.51034C12.9521 9.26327 12.4087 9.09677 11.5906 9.18856C11.5536 9.19271 11.5163 9.19479 11.4791 9.19479C11.1773 9.19479 10.4475 9.40244 9.88728 10.0813C9.366 10.713 8.90474 11.8674 9.30921 13.9097C9.32188 13.9736 9.32826 14.0387 9.32826 14.1039C9.32826 15.7661 9.14106 16.9061 8.76104 17.8518C8.44483 18.6387 8.00734 19.2477 7.56898 19.8355C8.09637 20.1343 8.65693 20.3815 9.24375 20.5701C9.28448 20.4928 9.33605 20.4196 9.39848 20.353C9.4013 20.3496 9.40655 20.3431 9.41401 20.3334C9.43821 20.302 9.48611 20.2358 9.55052 20.1274C9.67925 19.9108 9.87526 19.5232 10.0795 18.9043C10.2526 18.3799 10.8181 18.0951 11.3426 18.2682C11.867 18.4413 12.1519 19.0068 11.9787 19.5312C11.77 20.1636 11.5553 20.635 11.3674 20.9781C11.5764 20.9926 11.7873 21 12 21ZM12 23C18.0751 23 23 18.0751 23 12C23 5.92487 18.0751 1 12 1C5.92487 1 1 5.92487 1 12C1 18.0751 5.92487 23 12 23ZM11.7972 10.3856C12.3447 10.3127 12.8475 10.6975 12.9204 11.2449C13.0903 12.5223 12.9231 15.1596 12.4497 17.0717C12.317 17.6078 11.7748 17.9348 11.2387 17.8021C10.7026 17.6694 10.3756 17.1272 10.5083 16.5911C10.9352 14.8668 11.068 12.4866 10.9379 11.5087C10.865 10.9613 11.2498 10.4584 11.7972 10.3856Z" fill="black"/>
</svg>
