<svg width="24" height="24" viewBox="0 0 24 24" fill="none" xmlns="http://www.w3.org/2000/svg">
<path fill-rule="evenodd" clip-rule="evenodd" d="M19.4216 10.4427C19.5392 10.9542 19.5991 11.4763 19.6002 12C19.5991 12.5237 19.5392 13.0458 19.4216 13.5573L22 15.4255L20.0999 18.5745L17.114 17.3691C16.3054 18.0785 15.3457 18.6116 14.301 18.9318L13.9001 22H10.0999L9.69903 18.9318C8.65433 18.6116 7.6946 18.0785 6.886 17.3691L3.90006 18.5745L2 15.4255L4.57838 13.5573C4.34029 12.5316 4.34029 11.4684 4.57838 10.4427L2 8.57455L3.90006 5.42545L6.886 6.63091C7.6946 5.92154 8.65433 5.38839 9.69903 5.06818L10.0999 2H13.9001L14.301 5.06818C15.3457 5.38839 16.3054 5.92154 17.114 6.63091L20.0999 5.42545L22 8.57455L19.4216 10.4427ZM12 17C14.7614 17 17 14.7614 17 12C17 9.23858 14.7614 7 12 7C9.23858 7 7 9.23858 7 12C7 14.7614 9.23858 17 12 17Z" fill="black"/>
<path d="M19.6002 12L20.6002 12.0021L20.6002 11.9979L19.6002 12ZM19.4216 10.4427L18.8349 9.63295C18.5098 9.86848 18.3571 10.2756 18.4471 10.6668L19.4216 10.4427ZM19.4216 13.5573L18.4471 13.3332C18.3571 13.7244 18.5098 14.1315 18.8349 14.3671L19.4216 13.5573ZM22 15.4255L22.8562 15.9421C23.1247 15.4971 23.0076 14.9206 22.5867 14.6157L22 15.4255ZM20.0999 18.5745L19.7256 19.5018C20.181 19.6857 20.7025 19.5116 20.9562 19.0912L20.0999 18.5745ZM17.114 17.3691L17.4884 16.4418C17.1382 16.3005 16.7384 16.3684 16.4545 16.6174L17.114 17.3691ZM14.301 18.9318L14.0079 17.9757C13.6332 18.0906 13.3602 18.4137 13.3094 18.8023L14.301 18.9318ZM13.9001 22V23C14.4023 23 14.8266 22.6275 14.8916 22.1296L13.9001 22ZM10.0999 22L9.10837 22.1296C9.17344 22.6275 9.59774 23 10.0999 23V22ZM9.69903 18.9318L10.6906 18.8023C10.6398 18.4137 10.3668 18.0906 9.99208 17.9757L9.69903 18.9318ZM6.886 17.3691L7.54547 16.6174C7.26164 16.3684 6.86176 16.3005 6.51164 16.4418L6.886 17.3691ZM3.90006 18.5745L3.04384 19.0912C3.29754 19.5116 3.81903 19.6857 4.27441 19.5018L3.90006 18.5745ZM2 15.4255L1.41327 14.6157C0.992416 14.9206 0.875292 15.4971 1.14378 15.9421L2 15.4255ZM4.57838 13.5573L5.16511 14.3671C5.4908 14.1311 5.64342 13.7229 5.55248 13.3312L4.57838 13.5573ZM4.57838 10.4427L5.55248 10.6688C5.64342 10.2771 5.4908 9.86893 5.16511 9.63295L4.57838 10.4427ZM2 8.57455L1.14378 8.05793C0.875292 8.50292 0.992416 9.0794 1.41327 9.38433L2 8.57455ZM3.90006 5.42545L4.27441 4.49817C3.81903 4.31433 3.29754 4.48836 3.04384 4.90884L3.90006 5.42545ZM6.886 6.63091L6.51164 7.55819C6.86176 7.69954 7.26164 7.63164 7.54547 7.38264L6.886 6.63091ZM9.69903 5.06818L9.99208 6.02428C10.3668 5.90944 10.6398 5.58633 10.6906 5.19775L9.69903 5.06818ZM10.0999 2V1C9.59774 1 9.17344 1.37247 9.10837 1.87043L10.0999 2ZM13.9001 2L14.8916 1.87043C14.8266 1.37247 14.4023 1 13.9001 1V2ZM14.301 5.06818L13.3094 5.19775C13.3602 5.58633 13.6332 5.90944 14.0079 6.02428L14.301 5.06818ZM17.114 6.63091L16.4545 7.38264C16.7384 7.63164 17.1382 7.69954 17.4884 7.55819L17.114 6.63091ZM20.0999 5.42545L20.9562 4.90884C20.7025 4.48836 20.181 4.31433 19.7256 4.49817L20.0999 5.42545ZM22 8.57455L22.5867 9.38433C23.0076 9.0794 23.1247 8.50292 22.8562 8.05793L22 8.57455ZM20.6002 11.9979C20.5989 11.3993 20.5305 10.8028 20.3962 10.2186L18.4471 10.6668C18.548 11.1056 18.5993 11.5533 18.6002 12.0021L20.6002 11.9979ZM20.3962 13.7814C20.5305 13.1972 20.5989 12.6007 20.6002 12.0021L18.6002 11.9979C18.5993 12.4467 18.548 12.8944 18.4471 13.3332L20.3962 13.7814ZM22.5867 14.6157L20.0084 12.7475L18.8349 14.3671L21.4133 16.2352L22.5867 14.6157ZM20.9562 19.0912L22.8562 15.9421L21.1438 14.9088L19.2437 18.0579L20.9562 19.0912ZM16.7396 18.2964L19.7256 19.5018L20.4743 17.6473L17.4884 16.4418L16.7396 18.2964ZM14.594 19.8879C15.7717 19.5269 16.8568 18.925 17.7735 18.1208L16.4545 16.6174C15.754 17.2319 14.9196 17.6963 14.0079 17.9757L14.594 19.8879ZM14.8916 22.1296L15.2925 19.0614L13.3094 18.8023L12.9085 21.8704L14.8916 22.1296ZM10.0999 23H13.9001V21H10.0999V23ZM8.70746 19.0614L9.10837 22.1296L11.0915 21.8704L10.6906 18.8023L8.70746 19.0614ZM6.22653 18.1208C7.14317 18.925 8.22827 19.5269 9.40598 19.8879L9.99208 17.9757C9.08039 17.6963 8.24604 17.2319 7.54547 16.6174L6.22653 18.1208ZM4.27441 19.5018L7.26035 18.2964L6.51164 16.4418L3.5257 17.6473L4.27441 19.5018ZM1.14378 15.9421L3.04384 19.0912L4.75628 18.0579L2.85622 14.9088L1.14378 15.9421ZM3.99165 12.7475L1.41327 14.6157L2.58673 16.2352L5.16511 14.3671L3.99165 12.7475ZM3.60428 10.2166C3.33166 11.3911 3.33166 12.6089 3.60428 13.7834L5.55248 13.3312C5.34893 12.4542 5.34893 11.5458 5.55248 10.6688L3.60428 10.2166ZM1.41327 9.38433L3.99165 11.2525L5.16511 9.63295L2.58673 7.76476L1.41327 9.38433ZM3.04384 4.90884L1.14378 8.05793L2.85622 9.09116L4.75628 5.94207L3.04384 4.90884ZM7.26035 5.70362L4.27441 4.49817L3.5257 6.35274L6.51164 7.55819L7.26035 5.70362ZM9.40598 4.11208C8.22827 4.47306 7.14317 5.07504 6.22653 5.87918L7.54547 7.38264C8.24604 6.76805 9.08039 6.30372 9.99208 6.02428L9.40598 4.11208ZM9.10837 1.87043L8.70746 4.93862L10.6906 5.19775L11.0915 2.12957L9.10837 1.87043ZM13.9001 1H10.0999V3H13.9001V1ZM15.2925 4.93862L14.8916 1.87043L12.9085 2.12957L13.3094 5.19775L15.2925 4.93862ZM17.7735 5.87918C16.8568 5.07504 15.7717 4.47306 14.594 4.11208L14.0079 6.02428C14.9196 6.30372 15.754 6.76805 16.4545 7.38264L17.7735 5.87918ZM19.7256 4.49817L16.7396 5.70362L17.4884 7.55819L20.4743 6.35274L19.7256 4.49817ZM22.8562 8.05793L20.9562 4.90884L19.2437 5.94207L21.1438 9.09116L22.8562 8.05793ZM20.0084 11.2525L22.5867 9.38433L21.4133 7.76477L18.8349 9.63295L20.0084 11.2525ZM16 12C16 14.2091 14.2091 16 12 16V18C15.3137 18 18 15.3137 18 12H16ZM12 8C14.2091 8 16 9.79086 16 12H18C18 8.68629 15.3137 6 12 6V8ZM8 12C8 9.79086 9.79086 8 12 8V6C8.68629 6 6 8.68629 6 12H8ZM12 16C9.79086 16 8 14.2091 8 12H6C6 15.3137 8.68629 18 12 18V16Z" fill="black"/>
<circle cx="12" cy="12" r="2" fill="black"/>
</svg>
