<svg width="24" height="24" viewBox="0 0 24 24" fill="none" xmlns="http://www.w3.org/2000/svg">
<path d="M21.0938 8.72559H22.0028" stroke="black" stroke-width="2" stroke-linecap="round" stroke-linejoin="round"/>
<path d="M2 8.72559H12" stroke="black" stroke-width="2" stroke-linecap="round" stroke-linejoin="round"/>
<path d="M13.8184 15.9999H22.0002" stroke="black" stroke-width="2" stroke-linecap="round" stroke-linejoin="round"/>
<path d="M2 15.9999H4.72727" stroke="black" stroke-width="2" stroke-linecap="round" stroke-linejoin="round"/>
<path d="M14.7273 11.4544C16.2335 11.4544 17.4545 10.2334 17.4545 8.72715C17.4545 7.22092 16.2335 5.99988 14.7273 5.99988C13.221 5.99988 12 7.22092 12 8.72715C12 10.2334 13.221 11.4544 14.7273 11.4544Z" stroke="black" stroke-width="2" stroke-linecap="round" stroke-linejoin="round"/>
<path d="M7.45384 18.7244C8.96007 18.7244 10.1811 17.5034 10.1811 15.9972C10.1811 14.4909 8.96007 13.2699 7.45384 13.2699C5.9476 13.2699 4.72656 14.4909 4.72656 15.9972C4.72656 17.5034 5.9476 18.7244 7.45384 18.7244Z" stroke="black" stroke-width="2" stroke-linecap="round" stroke-linejoin="round"/>
</svg>
