<svg width="24" height="24" viewBox="0 0 24 24" fill="none" xmlns="http://www.w3.org/2000/svg">
<path d="M5.65079 8.24074C5.23147 7.88132 4.60017 7.92988 4.24074 8.34921C3.88132 8.76853 3.92988 9.39983 4.34921 9.75926L5.65079 8.24074ZM12 15L11.3492 15.7593L12 16.3171L12.6508 15.7593L12 15ZM19.6508 9.75926C20.0701 9.39983 20.1187 8.76853 19.7593 8.34921C19.3998 7.92988 18.7685 7.88132 18.3492 8.24074L19.6508 9.75926ZM4.34921 9.75926L11.3492 15.7593L12.6508 14.2407L5.65079 8.24074L4.34921 9.75926ZM12.6508 15.7593L19.6508 9.75926L18.3492 8.24074L11.3492 14.2407L12.6508 15.7593Z" fill="black"/>
</svg>
